<svg width="55" height="32" viewBox="0 0 55 32" fill="none" xmlns="http://www.w3.org/2000/svg">
<g clip-path="url(#clip0_22_224)">
<path d="M25.7075 14.5517L39.3199 2.98333H16.2548C16.2548 4.47741 16.229 5.90947 16.2671 7.33882C16.2894 7.57992 16.248 7.82263 16.147 8.04302C16.046 8.2634 15.8888 8.45384 15.691 8.59557C14.3325 9.67433 13.0202 10.7989 11.5951 11.9815V0.742213C11.7621 0.717186 11.9304 0.700534 12.0991 0.692321C21.6994 0.692321 31.2965 0.687379 40.8904 0.67749C41.4963 0.67749 41.7571 0.863573 41.9419 1.41644C42.3983 2.77567 42.9187 4.11333 43.4363 5.51302C43.1265 5.78271 42.8073 6.06049 42.4853 6.33422C39.406 8.94662 36.3212 11.5536 33.231 14.1552C32.9427 14.386 32.5876 14.5193 32.2175 14.5355C30.1132 14.5692 28.0143 14.5517 25.7075 14.5517Z" fill="white"/>
<path d="M38.7466 29.0852C38.7466 27.4388 38.7384 25.9838 38.7547 24.5207C38.7547 24.2929 38.7982 23.9814 38.9477 23.8465C40.3918 22.5992 41.8631 21.3829 43.4118 20.0857V31.4127H39.5373C31.0501 31.4127 22.5634 31.4127 14.0771 31.4127C13.5119 31.4127 13.2443 31.2562 13.0663 30.7195C12.6493 29.4628 12.1724 28.2263 11.6956 26.9911C11.5679 26.6594 11.6494 26.4787 11.9116 26.2562C15.2183 23.4577 18.5199 20.6547 21.8166 17.8473C21.9942 17.6837 22.2198 17.5807 22.4606 17.5533C24.6532 17.5317 26.8459 17.5412 29.2396 17.5412L15.6448 29.0852H38.7466Z" fill="white"/>
<path d="M6.10352e-05 26.0243L6.38514 20.5954C12.0004 15.8183 17.6206 11.0426 23.2458 6.26817C23.4089 6.13333 23.6222 5.95938 23.8137 5.95668C26.1572 5.93511 28.502 5.9432 31.0234 5.9432C30.0901 6.72934 29.2926 7.40626 28.4884 8.07509C21.3869 13.9948 14.2809 19.9118 7.17038 25.8261C6.98969 25.9757 6.75059 26.1497 6.53731 26.1524C4.37317 26.1766 2.20903 26.1672 0.0448948 26.1672L6.10352e-05 26.0243Z" fill="white"/>
<path d="M23.936 26.1901L30.8346 20.4134C36.3357 15.8116 41.8337 11.2057 47.3285 6.59582C47.8719 6.13195 48.4071 5.90406 49.138 5.92159C51.0318 5.96879 52.927 5.93777 55.0001 5.93777C54.2855 6.55132 53.6986 7.05833 53.1076 7.55591C45.9826 13.6248 38.8526 19.6892 31.7176 25.7492C31.3936 26.0034 30.9961 26.148 30.5833 26.1618C28.4381 26.2117 26.2917 26.1901 23.936 26.1901Z" fill="white"/>
</g>
<defs>
<clipPath id="clip0_22_224">
<rect width="55" height="30.7527" fill="white" transform="translate(6.10352e-05 0.67749)"/>
</clipPath>
</defs>
</svg>
