<svg width="33" height="31" viewBox="0 0 33 31" fill="none" xmlns="http://www.w3.org/2000/svg">
<g opacity="0.8" clip-path="url(#clip0_22_243)">
<path d="M31.3998 8.3161C30.584 8.95553 29.8439 9.53489 29.1046 10.1162C26.4526 12.1992 23.8012 14.2825 21.1505 16.3662C19.8523 17.3844 18.6964 17.3747 17.4001 16.3545C15.0103 14.4705 12.6154 12.589 10.2153 10.7101C10.006 10.5464 9.76668 10.4194 9.47312 10.2325C9.21444 10.3826 8.72517 10.6268 8.27951 10.9329C7.54029 11.4425 7.53739 12.2147 7.65946 12.9907C7.71454 13.2748 7.81985 13.5468 7.97046 13.7939C9.07687 15.7209 10.1988 17.6382 11.3091 19.5653C11.5999 20.0719 12.0459 20.4716 12.5811 20.7056C13.1314 20.9565 13.6711 20.9681 14.2039 20.6271C14.5789 20.3868 14.979 20.1776 15.3665 19.9547C16.5834 19.2552 17.8526 19.3405 18.9512 20.2173C19.2494 20.4442 19.5207 20.7042 19.7602 20.9923C20.9044 22.4611 21.9701 23.988 22.5078 25.8055C22.6189 26.2124 22.6666 26.6339 22.6493 27.0553C22.6309 27.7015 22.3053 28.1918 21.7386 28.526C17.7722 30.8628 13.9317 30.516 10.2143 27.9622C8.64184 26.8834 7.31794 25.4812 6.33118 23.8494C4.75392 21.2472 3.20281 18.6255 1.7544 15.9505C0.494918 13.6176 -0.138692 11.086 0.091891 8.40911C0.376729 5.09278 1.91233 2.50405 4.75199 0.722363C4.89538 0.632261 5.04942 0.559598 5.1899 0.465621C6.16649 -0.19125 7.06944 0.108121 7.78444 0.70783C8.56435 1.36083 9.14081 2.1824 9.62522 3.06888C10.005 3.76967 10.3654 4.48015 10.7064 5.20032C10.8111 5.42219 10.9574 5.41831 11.1405 5.41831H17.5241C21.8393 5.41831 26.1549 5.41831 30.4707 5.41831C31.0927 5.41831 31.674 5.52198 32.1749 5.91339C32.6758 6.3048 32.9558 6.79793 32.9558 7.4364C32.9558 12.2373 32.9558 17.0376 32.9558 21.8372C32.9558 22.9571 32.0024 23.8514 30.7768 23.862C28.3712 23.8834 25.9656 23.8717 23.56 23.8679C23.0669 23.8679 22.7287 23.5423 22.722 23.1015C22.7152 22.6607 23.033 22.3439 23.5367 22.3119C23.6569 22.3051 23.778 22.3119 23.8991 22.3119C26.1113 22.3119 28.3234 22.3119 30.5356 22.3119C31.2651 22.3119 31.4076 22.1637 31.4076 21.4399V8.3161H31.3998ZM16.3383 28.5309C17.7421 28.5115 19.0229 28.2451 20.2039 27.6085C21.2764 27.0272 21.32 26.9052 20.8531 25.7542C20.295 24.3794 19.4967 23.1383 18.554 22.0009C18.3557 21.7729 18.1346 21.5658 17.8942 21.3828C17.3556 20.9546 16.7927 20.8916 16.1891 21.2782C15.7547 21.5663 15.3015 21.8252 14.8327 22.0532C14.4675 22.2237 14.0664 22.3933 13.6701 22.4156C12.0483 22.5124 10.8159 21.7965 9.99436 20.4178C8.83175 18.4672 7.69467 16.5024 6.58309 14.5234C6.31819 14.0505 6.14218 13.5329 6.06378 12.9965C5.87777 11.6402 6.32925 10.1278 7.79703 9.39829C8.22913 9.18418 8.6312 8.91387 9.05652 8.67651C9.56419 8.39457 9.74342 7.95182 9.69789 7.40055C9.68538 7.18335 9.64866 6.96823 9.58841 6.75918C9.07332 5.11972 8.24629 3.59524 7.15277 2.26959C6.97779 2.0695 6.77326 1.89732 6.54627 1.75902C6.48774 1.72619 6.42279 1.70643 6.3559 1.70108C6.28901 1.69572 6.22175 1.70491 6.15874 1.72801C5.78645 1.9024 5.42989 2.10855 5.09302 2.34419C2.84823 4.00575 1.68465 6.24182 1.61393 9.02916C1.55774 11.2681 2.11772 13.3812 3.1815 15.3266C4.59115 17.8989 6.09479 20.4207 7.59455 22.9416C8.2272 24.0074 9.0478 24.9297 9.96917 25.7629C11.7974 27.4157 13.8755 28.495 16.3383 28.5309ZM30.5656 6.98782H11.2374C11.3343 7.78615 11.1841 8.51568 10.7423 9.16383C10.9273 9.30237 11.093 9.42154 11.2538 9.55136C13.5907 11.3863 15.9272 13.2213 18.2634 15.0563C19.1111 15.7228 19.4618 15.719 20.3057 15.0563C22.6599 13.2045 25.0152 11.3544 27.3714 9.50583C28.4139 8.68232 29.4554 7.86171 30.5656 6.98782Z" fill="white"/>
</g>
<defs>
<clipPath id="clip0_22_243">
<rect width="32.9094" height="30" fill="white" transform="translate(0.0453491 0.0945587)"/>
</clipPath>
</defs>
</svg>
