<svg width="31" height="31" viewBox="0 0 31 31" fill="none" xmlns="http://www.w3.org/2000/svg">
<g opacity="0.8">
<path d="M16.7916 24.1987C18.0396 24.1987 19.2877 24.1987 20.5358 24.1987C21.3503 24.205 22.1436 23.9389 22.7896 23.4427C25.7218 21.2617 27.9811 18.5015 29.7797 15.3437C30.0053 14.9437 29.8717 14.5748 29.4492 14.39C28.2867 13.882 26.9419 14.3188 26.377 15.4613C25.8042 16.6206 24.9857 17.487 23.792 17.9975C23.4256 18.1575 23.0768 18.3495 22.7136 18.5135C22.572 18.5775 22.532 18.6527 22.5464 18.8087C22.6752 20.1752 21.7991 21.1705 20.439 21.1785C18.4125 21.1913 16.3851 21.1833 14.3586 21.1785C14.0066 21.1785 13.8202 21.0473 13.7738 20.7857C13.7506 20.6816 13.7659 20.5727 13.8168 20.479C13.8677 20.3854 13.9507 20.3133 14.0506 20.276C14.1819 20.231 14.321 20.2133 14.4594 20.224C16.4059 20.224 18.3533 20.224 20.2998 20.2184C20.4986 20.2235 20.6969 20.1964 20.887 20.1384C21.1093 20.0575 21.2973 19.9032 21.42 19.701C21.5428 19.4988 21.5929 19.2609 21.5623 19.0264C21.4823 18.5255 21.0439 18.1631 20.463 18.1575C19.3845 18.1479 18.3029 18.1495 17.2284 18.1575C16.547 18.1724 15.8725 18.0193 15.2643 17.7119C14.9643 17.5539 14.6821 17.3643 14.4226 17.1462C14.0162 16.8094 13.5601 16.5694 13.0425 16.5598C11.9464 16.5382 10.8479 16.5406 9.75267 16.5942C9.13183 16.6246 8.59099 16.931 8.13496 17.3622L6.42204 18.9872C6.37164 19.0352 6.32204 19.0856 6.26763 19.1288C6.03882 19.3096 5.7452 19.3008 5.56198 19.1104C5.51506 19.0645 5.47788 19.0097 5.45266 18.9491C5.42744 18.8886 5.41471 18.8235 5.41524 18.7579C5.41576 18.6923 5.42952 18.6275 5.4557 18.5674C5.48188 18.5072 5.51994 18.453 5.56758 18.4079C6.29803 17.7135 7.01328 16.9982 7.79014 16.3598C8.50299 15.7733 9.37185 15.5213 10.2975 15.5237C11.2576 15.5237 12.2176 15.5237 13.1705 15.5709C13.8545 15.6067 14.5117 15.8488 15.0554 16.2654C15.8427 16.8566 16.7084 17.103 17.686 17.0702C18.6037 17.039 19.5261 17.0702 20.4414 17.0622C20.9752 17.0536 21.4944 17.2367 21.9047 17.5783C21.9498 17.6069 22.0007 17.6251 22.0537 17.6317C22.1067 17.6382 22.1605 17.6328 22.2111 17.6159C22.568 17.463 22.9072 17.2694 23.2632 17.1142C24.2857 16.667 24.9897 15.9365 25.4842 14.9245C26.2562 13.3412 28.3532 12.7091 29.9157 13.5164C30.7509 13.9476 31.0565 14.8765 30.6069 15.6765C28.762 18.9608 26.4154 21.8145 23.4064 24.1043C22.5596 24.7681 21.5117 25.1232 20.4358 25.1108C18.1156 25.1012 15.8035 25.1068 13.4873 25.1108C13.0073 25.1108 12.5345 25.0868 12.0848 25.3228C11.996 25.3692 11.7648 25.2892 11.696 25.1964C11.6024 25.0692 11.5288 24.8444 11.58 24.7163C11.6186 24.6291 11.675 24.5508 11.7455 24.4864C11.816 24.4221 11.8992 24.3732 11.9896 24.3427C12.3689 24.2576 12.7562 24.2133 13.1449 24.2107C14.3554 24.1891 15.5731 24.1987 16.7916 24.1987Z" fill="white"/>
<path d="M6.90203 10.4834C6.79642 9.13128 7.40126 8.50724 8.72935 8.38723C8.81696 8.36862 8.90569 8.35579 8.99497 8.34883C9.72062 8.37763 10.1278 8.0216 10.3215 7.33356C10.3943 7.07674 10.4015 6.87673 10.2415 6.66711C9.95717 6.30602 9.67689 5.94226 9.4006 5.57584C8.89977 4.91419 8.94457 4.16454 9.51741 3.5693C9.80863 3.26768 10.099 2.96606 10.3919 2.66604C10.8055 2.24121 11.4503 2.1948 11.9792 2.56363C12.3877 2.84952 12.7904 3.1442 13.1873 3.44769C13.4425 3.6445 13.6761 3.6429 13.9873 3.5477C14.6394 3.35088 14.9626 2.97406 14.9618 2.28441C14.9618 1.95959 15.0522 1.63317 15.1074 1.30914C15.1557 0.99029 15.3119 0.69766 15.55 0.48012C15.7881 0.26258 16.0936 0.133297 16.4155 0.113862C16.8331 0.0882602 17.2539 0.0914596 17.6732 0.10426C18.0257 0.111782 18.3644 0.242993 18.63 0.474945C18.8956 0.706898 19.0712 1.02483 19.1261 1.37315C19.2061 1.84518 19.2861 2.31801 19.3541 2.79165C19.3893 3.03166 19.5261 3.15567 19.7317 3.28288C20.3894 3.69011 20.9542 3.6125 21.4918 3.06927C21.679 2.88045 21.9199 2.74364 22.1407 2.58923C22.4326 2.37253 22.7929 2.26851 23.1554 2.29629C23.5179 2.32407 23.8581 2.48179 24.1136 2.74044C24.3656 2.98046 24.612 3.23008 24.8553 3.48129C25.4073 4.05173 25.4609 4.79018 24.9945 5.44223C24.7217 5.82305 24.4432 6.20148 24.156 6.57191C23.9736 6.80632 23.9576 7.02314 24.0496 7.31756C24.2448 7.9456 24.5912 8.29602 25.2833 8.29122C25.6073 8.29122 25.9329 8.38643 26.257 8.44323C26.5804 8.49553 26.8757 8.65797 27.0931 8.90305C27.3105 9.14813 27.4365 9.4608 27.4498 9.78813C27.4674 10.2074 27.4658 10.6274 27.4498 11.0458C27.4326 11.393 27.2957 11.7236 27.0623 11.9813C26.829 12.239 26.5136 12.408 26.1698 12.4595C25.7049 12.5251 25.2401 12.5867 24.7729 12.6323C24.4808 12.6619 24.3376 12.8139 24.2008 13.0724C23.9152 13.6148 23.8424 14.0892 24.2904 14.5925C24.4936 14.8221 24.3704 15.1469 24.1048 15.3125C23.8912 15.4453 23.6928 15.3925 23.488 15.1381C23.3747 15.0118 23.2719 14.8764 23.1807 14.7333C23.0716 14.5561 22.9881 14.3643 22.9327 14.1636C22.7063 13.1492 23.6248 11.8235 24.6401 11.6731C25.0841 11.6075 25.5273 11.5362 25.9681 11.4546C26.3186 11.389 26.4394 11.2346 26.4482 10.8778C26.453 10.6082 26.4482 10.3386 26.4482 10.0689C26.4482 9.64812 26.3138 9.48811 25.9065 9.4201C25.4993 9.3521 25.0793 9.28649 24.6641 9.22809C23.9616 9.12968 23.456 8.79446 23.2376 8.08801C23.1879 7.928 23.0967 7.77999 23.0327 7.62318C22.8167 7.09354 22.8567 6.59031 23.2023 6.12307C23.4992 5.72305 23.7984 5.32302 24.092 4.91899C24.332 4.59257 24.3112 4.41656 24.0216 4.14134C23.8112 3.94212 23.6024 3.74131 23.388 3.5469C23.0999 3.28688 22.9079 3.27808 22.5879 3.50849C22.2145 3.77518 21.8439 4.04587 21.4758 4.32055C20.9622 4.70058 20.4198 4.75178 19.8413 4.48056C19.6605 4.40056 19.4749 4.32455 19.2901 4.25015C18.7452 4.03013 18.418 3.6437 18.3396 3.05006C18.2788 2.58603 18.2036 2.1228 18.1212 1.66117C18.0524 1.27634 17.8924 1.14753 17.5132 1.14273C17.2235 1.14273 16.9339 1.13713 16.6443 1.14273C16.3099 1.15073 16.1523 1.28434 16.0963 1.61397C16.0163 2.066 15.9539 2.52043 15.8826 2.97406C15.8618 3.10207 15.8322 3.22848 15.8122 3.35648C15.673 4.22934 13.5817 5.1022 12.8472 4.44936C12.4768 4.11974 12.0472 3.85572 11.6416 3.5645C11.3015 3.31968 11.0887 3.33408 10.7959 3.6205C10.6103 3.80212 10.4279 3.98693 10.2455 4.17174C9.94304 4.47816 9.92944 4.63657 10.1791 4.9782C10.4623 5.36462 10.7455 5.75105 11.0343 6.13267C11.3927 6.60551 11.4407 7.11434 11.2295 7.65758C11.1495 7.87199 11.0599 8.08401 10.9815 8.29762C10.7791 8.85766 10.3783 9.17768 9.80223 9.28009C9.31099 9.3673 8.81736 9.4401 8.32453 9.52011C7.9565 9.58011 7.80929 9.75292 7.80449 10.1281C7.80049 10.4082 7.79969 10.6882 7.80449 10.9666C7.81089 11.3194 7.9645 11.497 8.31412 11.5554C8.79416 11.6355 9.27979 11.7035 9.76142 11.7891C10.3703 11.8971 10.7943 12.2379 11.0031 12.8291C11.1223 13.166 11.2431 13.5004 11.3535 13.8412C11.3787 13.9481 11.3806 14.0591 11.3591 14.1668C11.3143 14.4869 11.1303 14.6365 10.8343 14.6141C10.5559 14.5933 10.4407 14.4116 10.3759 14.1172C10.2935 13.7218 10.1632 13.3378 9.98784 12.9739C9.91984 12.8363 9.66782 12.7571 9.4814 12.7171C9.08138 12.6291 8.67495 12.5811 8.27092 12.5219C7.38206 12.3907 6.90203 11.8355 6.89723 10.9298L6.90203 10.4834Z" fill="white"/>
<path d="M11.2224 26.7997C11.2034 27.2816 10.9987 27.7374 10.6511 28.0718C10.0343 28.6822 9.41103 29.2863 8.78779 29.8903C8.51177 30.1583 8.27896 30.1639 8.01014 29.8991C5.46703 27.3923 2.92552 24.8833 0.38561 22.3722C0.119992 22.1098 0.119192 21.8818 0.38561 21.6217C1.03846 20.9761 1.6889 20.3289 2.35695 19.7016C2.67475 19.3903 3.10305 19.2178 3.54789 19.2218C3.99274 19.2259 4.41782 19.4062 4.72991 19.7232C6.74712 21.6967 8.76032 23.676 10.7695 25.6612C11.0823 25.9724 11.2088 26.3573 11.2224 26.7997ZM1.40808 22.0114L8.39016 28.8918C8.923 28.3742 9.43023 27.8822 9.93667 27.3885C10.3767 26.9605 10.3807 26.6133 9.94707 26.1885C9.23502 25.4908 8.52137 24.7942 7.80612 24.0987C6.56337 22.888 5.32195 21.6764 4.08187 20.4641C3.74104 20.1312 3.33941 20.0744 3.04179 20.3585C2.49216 20.8897 1.96412 21.4465 1.40808 22.0114Z" fill="white"/>
<path d="M22.1391 10.4434C22.1391 13.158 19.8574 15.3949 17.0988 15.3853C14.3226 15.3765 12.0584 13.1452 12.0776 10.425C12.0928 7.69358 14.349 5.50063 17.1348 5.50783C19.9038 5.51743 22.1399 7.72158 22.1391 10.4434ZM17.1308 6.4727C14.9122 6.4671 13.0921 8.24642 13.0825 10.4306C13.0729 12.6147 14.8826 14.4188 17.0932 14.4308C19.3037 14.4428 21.1207 12.6619 21.1407 10.4682C21.1599 8.28722 19.3405 6.4727 17.1308 6.4727Z" fill="white"/>
</g>
</svg>
