<svg width="31" height="31" viewBox="0 0 31 31" fill="none" xmlns="http://www.w3.org/2000/svg">
<path d="M15.4663 30.4265C12.2787 30.4265 9.09112 30.4348 5.90352 30.4265C3.39507 30.4181 1.35114 28.7941 0.793709 26.3776C0.708406 25.9808 0.666967 25.5758 0.670143 25.1699C0.662091 21.2331 0.660233 17.2967 0.664569 13.3606C0.664569 11.5954 1.37437 10.1795 2.75588 9.08694C5.8868 6.61627 9.01463 4.1425 12.1394 1.66563C14.2028 0.0304928 16.7596 0.0137693 18.8286 1.64334C21.9793 4.12764 25.1263 6.61596 28.2696 9.10831C29.6391 10.1925 30.3349 11.6065 30.334 13.3606C30.334 17.2961 30.3424 21.2325 30.334 25.1689C30.3266 27.8539 28.54 29.9387 25.8959 30.3717C25.5745 30.4143 25.2501 30.4314 24.926 30.4227C21.7715 30.4296 18.6183 30.4308 15.4663 30.4265ZM15.5007 28.9455C18.6551 28.9455 21.8087 28.9455 24.9613 28.9455C27.2635 28.9455 28.8559 27.3541 28.8568 25.0537C28.8568 21.1628 28.8568 17.2722 28.8568 13.382C28.8568 12.0989 28.357 11.0668 27.3545 10.2743C24.1957 7.77883 21.0385 5.28369 17.8828 2.78886C16.3898 1.61082 14.5874 1.62568 13.0879 2.81116C9.94833 5.29298 6.80874 7.77387 3.66914 10.2538C2.64253 11.063 2.13712 12.1073 2.13898 13.4173C2.14641 17.2849 2.13898 21.1526 2.13898 25.0203C2.13898 27.3671 3.71838 28.9446 6.06982 28.9455H15.5007Z" fill="white"/>
<path d="M15.499 23.7372C16.7152 23.7372 17.9304 23.7307 19.1456 23.7372C19.6287 23.7419 19.9446 24.0485 19.9501 24.4721C19.9557 24.8958 19.6324 25.2089 19.1316 25.2302C19.0387 25.2349 18.9458 25.2302 18.8529 25.2302H12.1851C12.081 25.2302 11.977 25.2302 11.8729 25.2302C11.3712 25.2107 11.047 24.9116 11.0516 24.4749C11.0563 24.0383 11.3805 23.7391 11.8878 23.7363C13.0909 23.7317 14.295 23.7363 15.499 23.7372Z" fill="white"/>
</svg>
