<svg width="41" height="41" viewBox="0 0 41 41" fill="none" xmlns="http://www.w3.org/2000/svg">
<g opacity="0.8">
<path d="M40.4974 17.8155C40.4724 17.8874 40.4422 17.9582 40.4214 18.0311C40.0579 19.3238 39.0766 20.0728 37.7266 20.0728C34.837 20.0728 31.9485 20.0728 29.0599 20.0832C28.832 20.0883 28.61 20.1572 28.4193 20.2822C26.062 21.877 23.7151 23.4884 21.362 25.0895C20.4922 25.6801 19.4568 25.3415 19.212 24.3926C19.177 24.2276 19.1623 24.059 19.1683 23.8905C19.1683 22.7606 19.1683 21.6304 19.1683 20.4999V20.0967H17.1256C17.1256 20.9613 17.1464 21.8207 17.1162 22.678C17.0909 23.1247 17.0253 23.5681 16.9203 24.003C16.8162 24.478 16.6287 24.9405 16.5339 25.4113C16.4297 25.9176 16.2016 26.2947 15.7506 26.5572C15.6213 26.6409 15.5303 26.7723 15.4974 26.9228C15.3495 27.9645 14.9193 28.8259 14.0204 29.4228C13.9718 29.459 13.9312 29.505 13.9013 29.5577C13.8713 29.6104 13.8527 29.6687 13.8464 29.729C13.8287 30.2603 13.8381 30.7926 13.8381 31.3853C14.0058 31.3853 14.1506 31.3853 14.3058 31.3853C15.2537 31.4061 16.212 31.3488 17.1485 31.4665C18.9943 31.6988 20.4235 33.3249 20.4818 35.1801C20.5141 36.154 20.5026 37.129 20.487 38.103C20.4781 38.5093 20.3444 38.903 20.104 39.2306C19.8636 39.5582 19.5282 39.8039 19.1433 39.9342C19.0464 39.9686 18.9506 40.0072 18.8547 40.0384H2.13806C1.28806 39.7957 0.738062 39.253 0.497437 38.4009V34.8176C0.527016 34.7632 0.551094 34.7059 0.569312 34.6467C0.93077 32.9249 2.18285 31.6811 3.92244 31.4582C4.79431 31.3467 5.69327 31.4061 6.57139 31.3895C6.76098 31.3895 6.95056 31.3895 7.15681 31.3895C7.15681 30.7957 7.16618 30.2634 7.14848 29.7322C7.1419 29.672 7.12296 29.6138 7.09284 29.5613C7.06273 29.5088 7.02209 29.463 6.97348 29.427C6.07139 28.8311 5.64118 27.9686 5.49431 26.927C5.47856 26.8521 5.44818 26.7811 5.40492 26.718C5.36167 26.6549 5.30638 26.6009 5.24223 26.5592C4.77973 26.2884 4.54535 25.9009 4.45056 25.377C4.37385 24.9205 4.24668 24.4741 4.07139 24.0457C3.88036 23.6039 3.81025 23.1193 3.86827 22.6415C3.90059 22.3363 3.91728 22.0297 3.91827 21.7228C3.92973 20.8165 3.83181 19.8967 3.95681 19.0072C4.26931 16.7915 5.46931 15.2322 7.6391 14.5061C8.78494 14.1217 9.97869 14.0249 11.1808 14.1145C11.6058 14.1457 12.0297 14.203 12.4995 14.253V13.7686C12.4995 10.2072 12.5412 6.64571 12.4829 3.08633C12.4516 1.18946 13.8485 0.0529978 15.4631 0.0957061C17.9224 0.159248 20.3839 0.112373 22.8443 0.112373H37.7266C38.8568 0.112373 39.7058 0.606123 40.2266 1.61237C40.3353 1.85983 40.4275 2.11421 40.5026 2.37383L40.4974 17.8155ZM20.4974 24.0655C20.6787 23.9468 20.7891 23.878 20.8954 23.8051C23.169 22.2474 25.4419 20.6888 27.7141 19.129C28.0743 18.8711 28.5076 18.7353 28.9506 18.7415C31.8526 18.752 34.7547 18.7478 37.6579 18.7467C38.6256 18.7467 39.1651 18.2145 39.1662 17.2582C39.1662 12.477 39.1662 7.69571 39.1662 2.91446C39.1662 1.97696 38.6245 1.43946 37.686 1.43946H15.311C14.3662 1.43946 13.8391 1.9655 13.8391 2.91446C13.8391 6.72071 13.8391 10.528 13.8308 14.3353C13.8308 14.5926 13.9068 14.7238 14.1433 14.8353C15.1934 15.3198 16.0329 16.1678 16.5068 17.2228C16.7276 17.702 16.8766 18.2124 17.0724 18.7467C17.7276 18.7467 18.4183 18.7103 19.1016 18.7634C19.4442 18.798 19.7726 18.918 20.0568 19.1124C20.4079 19.3509 20.5026 19.7592 20.5006 20.1853C20.4974 21.4561 20.4974 22.7259 20.4974 24.0676V24.0655ZM7.2016 32.7259C6.22764 32.7259 5.26202 32.6822 4.30265 32.7374C3.63845 32.7767 3.014 33.0669 2.55566 33.5492C2.09733 34.0315 1.83934 34.67 1.8339 35.3353C1.81619 36.2051 1.82348 37.077 1.8339 37.9478C1.8339 38.4603 2.09015 38.7124 2.60994 38.7124C7.87036 38.7124 13.1308 38.7124 18.3912 38.7124C18.912 38.7124 19.1631 38.4593 19.1672 37.9468C19.1745 37.0759 19.1818 36.2051 19.1672 35.3343C19.1412 34.0468 18.2433 32.9311 16.9641 32.7936C15.9224 32.6811 14.8631 32.7707 13.7829 32.7707C13.2995 34.3582 12.2558 35.3634 10.5026 35.3634C8.74952 35.3634 7.70264 34.3551 7.2016 32.7259ZM13.5558 19.304C11.5047 20.3697 9.49327 20.3676 7.44015 19.304C6.80473 20.0238 6.59535 20.9707 6.42973 21.9353C6.29015 22.7488 6.15056 22.8645 5.32764 22.7801C5.29327 22.7801 5.25681 22.8061 5.14848 22.8478C5.20577 23.0707 5.25265 23.302 5.32452 23.528C5.4714 24.0217 5.65681 24.5061 5.76619 25.0072C5.8214 25.2582 5.85473 25.3947 6.15161 25.4124C6.51827 25.4332 6.7391 25.6624 6.77035 26.0436C6.78597 26.2384 6.80889 26.4322 6.82243 26.6259C6.88077 27.4999 7.30056 28.1218 8.06515 28.5634C8.52835 28.8439 8.96244 29.1698 9.36098 29.5363C10.0901 30.177 10.9037 30.177 11.6318 29.5363C12.0626 29.1674 12.5189 28.8294 12.9974 28.5249C13.5797 28.1478 14.0318 27.7009 14.1193 26.977C14.1537 26.6936 14.1933 26.4113 14.2235 26.128C14.2756 25.6436 14.4318 25.4592 14.9214 25.3988C15.137 25.3738 15.1818 25.2842 15.2276 25.0863C15.3485 24.5738 15.511 24.0707 15.662 23.5645C15.7179 23.434 15.7663 23.3005 15.8068 23.1645C15.8568 22.8915 15.8193 22.7176 15.4464 22.7999C14.9964 22.8988 14.7276 22.6884 14.6308 22.2405C14.6037 22.1145 14.5901 21.9842 14.5641 21.8572C14.3704 20.9342 14.1787 20.0051 13.5537 19.304H13.5558ZM5.12244 20.952L5.25056 20.9655C5.33181 20.6811 5.4089 20.3957 5.49223 20.1124C5.72639 19.2942 6.20908 18.5691 6.87348 18.0374C7.31723 17.679 7.85785 17.7374 8.29431 18.0978C8.56306 18.3207 8.89431 18.5499 9.22348 18.5999C9.8908 18.6881 10.5643 18.7202 11.237 18.6957C11.8308 18.6832 12.3693 18.5082 12.8058 18.0363C13.1412 17.6738 13.7214 17.7092 14.1224 18.0363C14.7963 18.5775 15.2822 19.3175 15.511 20.1509C15.5881 20.4238 15.6683 20.6967 15.7474 20.9697L15.8454 20.952C15.8058 20.3572 15.8099 19.7561 15.7193 19.1697C15.4443 17.3874 14.4693 16.178 12.6922 15.6988C11.2412 15.3 9.7089 15.3039 8.25994 15.7103C6.65994 16.154 5.66723 17.2061 5.34327 18.8353C5.21098 19.527 5.19327 20.2447 5.12244 20.952ZM8.52452 30.629C8.52452 31.2051 8.48077 31.7749 8.53493 32.3343C8.58394 32.7513 8.76673 33.1412 9.05593 33.4456C9.34512 33.75 9.72515 33.9525 10.1391 34.0228C10.5458 34.096 10.9652 34.0412 11.3395 33.8661C11.7137 33.6909 12.0244 33.4039 12.2287 33.0447C12.6599 32.2749 12.4672 31.4467 12.4901 30.5936C10.9318 31.6447 10.3422 31.6447 8.52452 30.629Z" fill="white"/>
<path d="M24.0933 9.103C24.1464 8.76654 24.2245 8.38425 24.2568 7.99675C24.263 7.84036 24.2143 7.68673 24.1193 7.56237C23.9245 7.32071 23.6891 7.11237 23.4714 6.88842C23.2089 6.61758 23.086 6.30821 23.2047 5.93112C23.3235 5.55404 23.6141 5.27488 23.9985 5.28842C24.9089 5.31967 25.388 4.87175 25.6443 4.05196C25.7672 3.65717 26.0776 3.44675 26.5068 3.44883C26.936 3.45092 27.2297 3.66446 27.3401 4.03633C27.5953 4.88112 28.0985 5.31654 29.0141 5.28633C29.3683 5.27592 29.6485 5.52071 29.7662 5.87488C29.8912 6.24988 29.8433 6.63842 29.5214 6.86967C28.7474 7.42383 28.5974 8.11967 28.8745 8.98946C28.9912 9.35717 28.8308 9.68425 28.5214 9.91237C28.212 10.1405 27.8401 10.1884 27.538 9.95196C26.8308 9.39675 26.1943 9.43842 25.4547 9.93842C24.836 10.3624 24.0849 9.88008 24.0933 9.103ZM27.4141 8.35821C27.1693 7.58113 27.3776 6.98842 28.0276 6.48321C27.1943 6.53321 26.7547 6.09988 26.4787 5.39883C26.2766 6.17904 25.7318 6.45404 24.8787 6.48321C25.6453 7.00404 25.8162 7.61029 25.5755 8.37279C26.1995 7.89258 26.7901 7.89779 27.4141 8.35821Z" fill="white"/>
<path d="M16.0985 9.04571C16.1686 8.72158 16.2194 8.39357 16.2506 8.06342C16.2527 7.86961 16.192 7.68032 16.0777 7.52383C15.8922 7.27592 15.6391 7.08113 15.4329 6.84779C14.9027 6.24675 15.186 5.33529 15.9808 5.30196C16.8943 5.26446 17.3922 4.87175 17.6475 4.03529C17.7631 3.66029 18.0693 3.453 18.4808 3.44883C18.8922 3.44467 19.21 3.63842 19.3245 4.01758C19.5797 4.88217 20.1089 5.25404 21.0245 5.30612C21.8183 5.35196 22.0787 6.25821 21.5402 6.86134C21.3747 7.06198 21.1917 7.24743 20.9933 7.4155C20.7027 7.64154 20.6704 7.90925 20.7495 8.23946C20.8187 8.51628 20.8636 8.7986 20.8839 9.08321C20.9329 9.85404 20.2412 10.3103 19.5495 9.97488C19.3931 9.91064 19.2449 9.82812 19.1079 9.72904C18.6839 9.38113 18.2808 9.40508 17.8579 9.73633C17.7105 9.84323 17.5502 9.93108 17.3808 9.99779C16.7475 10.2811 16.0829 9.84259 16.0985 9.04571ZM17.587 8.35821C18.212 7.88946 18.7954 7.90404 19.4183 8.35196C19.1527 7.56863 19.3995 6.98946 20.0193 6.4905C19.2193 6.4905 18.7381 6.12175 18.4902 5.38633C18.2693 6.16133 17.7547 6.47696 16.9766 6.49571C17.6058 6.98946 17.8391 7.57279 17.587 8.35821Z" fill="white"/>
<path d="M32.086 9.13529C32.1228 8.80027 32.1777 8.4675 32.2505 8.13842C32.3308 7.84363 32.2505 7.64779 32.0318 7.45821C31.8284 7.27614 31.6357 7.08241 31.4547 6.878C30.9078 6.28321 31.1599 5.35613 31.9505 5.3155C32.8943 5.26967 33.4089 4.86133 33.6735 3.99779C33.7849 3.63738 34.0995 3.45404 34.4943 3.453C34.8891 3.45196 35.1578 3.64988 35.3276 3.99154C35.4657 4.24099 35.5858 4.49999 35.687 4.76654C35.7849 5.0655 35.9891 5.15092 36.2683 5.18321C36.553 5.20721 36.8357 5.25177 37.1141 5.31654C37.8193 5.49467 38.0516 6.25404 37.5891 6.81654C37.5354 6.89044 37.4716 6.95637 37.3995 7.01238C36.7089 7.46654 36.6182 8.08946 36.8495 8.82696C36.9849 9.26134 36.8933 9.66029 36.5026 9.93321C36.112 10.2061 35.713 10.154 35.3818 9.87696C34.7235 9.32696 34.1526 9.51863 33.5068 9.92696C32.8339 10.3488 32.0537 9.88113 32.086 9.13529ZM32.9787 6.49363C33.6172 6.99363 33.8307 7.59154 33.5849 8.36863C34.2162 7.88217 34.8047 7.9155 35.4266 8.36863C35.1568 7.59259 35.386 6.99571 36.0089 6.48529C35.2047 6.49259 34.7401 6.11654 34.4974 5.3905C34.261 6.1405 33.7672 6.48529 32.9787 6.48946V6.49363Z" fill="white"/>
<path d="M26.5183 12.0967H34.1329C34.2631 12.0967 34.3943 12.0967 34.5235 12.104C34.6878 12.1086 34.8444 12.1744 34.9627 12.2885C35.081 12.4026 35.1525 12.5567 35.1631 12.7207C35.1695 12.8848 35.1153 13.0455 35.0108 13.1721C34.9063 13.2988 34.7587 13.3824 34.5964 13.4072C34.4678 13.4261 34.3377 13.4331 34.2078 13.428C29.069 13.428 23.9276 13.428 18.7839 13.428C18.6282 13.4343 18.4723 13.42 18.3203 13.3853C18.176 13.3462 18.0494 13.2586 17.9622 13.1371C17.8749 13.0156 17.8322 12.8678 17.8412 12.7185C17.8503 12.5692 17.9106 12.4276 18.0119 12.3175C18.1132 12.2075 18.2494 12.1358 18.3974 12.1145C18.5399 12.0983 18.6834 12.0931 18.8266 12.0988L26.5183 12.0967Z" fill="white"/>
<path d="M26.5443 14.7603C27.8057 14.7603 29.0662 14.7603 30.3266 14.7603C30.8599 14.7603 31.1599 15.0009 31.1599 15.4186C31.1599 15.8363 30.8568 16.0874 30.3266 16.0884C27.7662 16.0884 25.2057 16.0884 22.6453 16.0884C22.137 16.0884 21.8193 15.8103 21.8307 15.3999C21.8422 14.9895 22.137 14.7624 22.6443 14.7613C23.9453 14.7603 25.2443 14.7603 26.5443 14.7603Z" fill="white"/>
</g>
</svg>
