<svg width="90" height="91" viewBox="0 0 90 91" fill="none" xmlns="http://www.w3.org/2000/svg">
<mask id="path-1-inside-1_45_697" fill="white">
<path d="M0 0H90V91H0V0Z"/>
</mask>
<path d="M0 0H90V91H0V0Z" fill="#111319"/>
<path d="M90 90H0V92H90V90Z" fill="white" fill-opacity="0.15" mask="url(#path-1-inside-1_45_697)"/>
<g clip-path="url(#clip0_45_697)">
<path d="M42.7075 43.8742L56.3199 32.3058H33.2548C33.2548 33.7999 33.229 35.232 33.2671 36.6613C33.2894 36.9024 33.248 37.1451 33.147 37.3655C33.046 37.5859 32.8888 37.7764 32.691 37.9181C31.3325 38.9968 30.0202 40.1214 28.5951 41.304V30.0647C28.7621 30.0397 28.9304 30.023 29.0991 30.0148C38.6994 30.0148 48.2965 30.0099 57.8904 30C58.4963 30 58.7571 30.1861 58.9419 30.7389C59.3983 32.0982 59.9187 33.4358 60.4363 34.8355C60.1265 35.1052 59.8073 35.383 59.4853 35.6567C56.406 38.2691 53.3212 40.8761 50.231 43.4777C49.9427 43.7085 49.5876 43.8418 49.2175 43.858C47.1132 43.8917 45.0143 43.8742 42.7075 43.8742Z" fill="white"/>
<path d="M55.7466 58.4077C55.7466 56.7613 55.7384 55.3063 55.7547 53.8433C55.7547 53.6154 55.7982 53.3039 55.9477 53.169C57.3918 51.9217 58.8631 50.7054 60.4118 49.4082V60.7352H56.5373C48.0501 60.7352 39.5634 60.7352 31.0771 60.7352C30.5119 60.7352 30.2443 60.5787 30.0663 60.0421C29.6493 58.7853 29.1724 57.5488 28.6956 56.3136C28.5679 55.9819 28.6494 55.8012 28.9116 55.5787C32.2183 52.7802 35.5199 49.9773 38.8166 47.1698C38.9942 47.0062 39.2198 46.9032 39.4606 46.8758C41.6532 46.8542 43.8459 46.8637 46.2396 46.8637L32.6448 58.4077H55.7466Z" fill="white"/>
<path d="M17.0001 55.3468L23.3851 49.9179C29.0004 45.1408 34.6206 40.3651 40.2458 35.5907C40.4089 35.4558 40.6222 35.2819 40.8137 35.2792C43.1572 35.2576 45.502 35.2657 48.0234 35.2657C47.0901 36.0519 46.2926 36.7288 45.4884 37.3976C38.3869 43.3173 31.2809 49.2343 24.1704 55.1486C23.9897 55.2982 23.7506 55.4722 23.5373 55.4749C21.3732 55.4992 19.209 55.4897 17.0449 55.4897L17.0001 55.3468Z" fill="white"/>
<path d="M40.936 55.5126L47.8346 49.7359C53.3357 45.1341 58.8337 40.5282 64.3285 35.9183C64.8719 35.4545 65.4071 35.2266 66.138 35.2441C68.0318 35.2913 69.927 35.2603 72.0001 35.2603C71.2855 35.8738 70.6986 36.3808 70.1076 36.8784C62.9826 42.9473 55.8526 49.0118 48.7176 55.0717C48.3936 55.3259 47.9961 55.4705 47.5833 55.4843C45.4381 55.5342 43.2917 55.5126 40.936 55.5126Z" fill="white"/>
</g>
<defs>
<clipPath id="clip0_45_697">
<rect width="55" height="30.7527" fill="white" transform="translate(17.0001 30)"/>
</clipPath>
</defs>
</svg>
