<svg width="95" height="45" viewBox="0 0 95 45" fill="none" xmlns="http://www.w3.org/2000/svg">
<path d="M37.5 1.75152L47.803 10.4868L57.5 1.48682" stroke="white" stroke-width="2" stroke-linecap="round" stroke-linejoin="round"/>
<path d="M5.364 38.5988C4.61733 38.5988 3.94533 38.4708 3.348 38.2148C2.75067 37.9481 2.28133 37.5748 1.94 37.0948C1.59867 36.6148 1.428 36.0548 1.428 35.4148H3.38C3.42267 35.8948 3.60933 36.2895 3.94 36.5988C4.28133 36.9081 4.756 37.0628 5.364 37.0628C5.99333 37.0628 6.484 36.9135 6.836 36.6148C7.188 36.3055 7.364 35.9108 7.364 35.4308C7.364 35.0575 7.252 34.7535 7.028 34.5188C6.81467 34.2841 6.54267 34.1028 6.212 33.9748C5.892 33.8468 5.444 33.7081 4.868 33.5588C4.14267 33.3668 3.55067 33.1748 3.092 32.9828C2.644 32.7801 2.26 32.4708 1.94 32.0548C1.62 31.6388 1.46 31.0841 1.46 30.3908C1.46 29.7508 1.62 29.1908 1.94 28.7108C2.26 28.2308 2.708 27.8628 3.284 27.6068C3.86 27.3508 4.52667 27.2228 5.284 27.2228C6.36133 27.2228 7.24133 27.4948 7.924 28.0388C8.61733 28.5721 9.00133 29.3081 9.076 30.2468H7.06C7.028 29.8415 6.836 29.4948 6.484 29.2068C6.132 28.9188 5.668 28.7748 5.092 28.7748C4.56933 28.7748 4.14267 28.9081 3.812 29.1748C3.48133 29.4415 3.316 29.8255 3.316 30.3268C3.316 30.6681 3.41733 30.9508 3.62 31.1748C3.83333 31.3881 4.1 31.5588 4.42 31.6868C4.74 31.8148 5.17733 31.9535 5.732 32.1028C6.468 32.3055 7.06533 32.5081 7.524 32.7108C7.99333 32.9135 8.388 33.2281 8.708 33.6548C9.03867 34.0708 9.204 34.6308 9.204 35.3348C9.204 35.9001 9.04933 36.4335 8.74 36.9348C8.44133 37.4361 7.99867 37.8415 7.412 38.1508C6.836 38.4495 6.15333 38.5988 5.364 38.5988ZM10.7483 34.0708C10.7483 33.1641 10.9296 32.3695 11.2923 31.6868C11.6656 30.9935 12.1776 30.4601 12.8283 30.0868C13.4789 29.7135 14.2256 29.5268 15.0683 29.5268C16.1349 29.5268 17.0149 29.7828 17.7083 30.2948C18.4123 30.7961 18.8869 31.5161 19.1323 32.4548H17.1643C17.0043 32.0175 16.7483 31.6761 16.3963 31.4308C16.0443 31.1855 15.6016 31.0628 15.0683 31.0628C14.3216 31.0628 13.7243 31.3295 13.2763 31.8628C12.8389 32.3855 12.6203 33.1215 12.6203 34.0708C12.6203 35.0201 12.8389 35.7615 13.2763 36.2948C13.7243 36.8281 14.3216 37.0948 15.0683 37.0948C16.1243 37.0948 16.8229 36.6308 17.1643 35.7028H19.1323C18.8763 36.5988 18.3963 37.3135 17.6923 37.8468C16.9883 38.3695 16.1136 38.6308 15.0683 38.6308C14.2256 38.6308 13.4789 38.4441 12.8283 38.0708C12.1776 37.6868 11.6656 37.1535 11.2923 36.4708C10.9296 35.7775 10.7483 34.9775 10.7483 34.0708ZM22.774 30.9508C23.0407 30.5028 23.3927 30.1561 23.83 29.9108C24.278 29.6548 24.806 29.5268 25.414 29.5268V31.4148H24.95C24.2353 31.4148 23.6913 31.5961 23.318 31.9588C22.9553 32.3215 22.774 32.9508 22.774 33.8468V38.4868H20.95V29.6708H22.774V30.9508ZM30.9146 38.6308C30.0826 38.6308 29.3306 38.4441 28.6586 38.0708C27.9866 37.6868 27.4586 37.1535 27.0746 36.4708C26.6906 35.7775 26.4986 34.9775 26.4986 34.0708C26.4986 33.1748 26.696 32.3801 27.0906 31.6868C27.4853 30.9935 28.024 30.4601 28.7066 30.0868C29.3893 29.7135 30.152 29.5268 30.9946 29.5268C31.8373 29.5268 32.6 29.7135 33.2826 30.0868C33.9653 30.4601 34.504 30.9935 34.8986 31.6868C35.2933 32.3801 35.4906 33.1748 35.4906 34.0708C35.4906 34.9668 35.288 35.7615 34.8826 36.4548C34.4773 37.1481 33.9226 37.6868 33.2186 38.0708C32.5253 38.4441 31.7573 38.6308 30.9146 38.6308ZM30.9146 37.0468C31.384 37.0468 31.8213 36.9348 32.2266 36.7108C32.6426 36.4868 32.9786 36.1508 33.2346 35.7028C33.4906 35.2548 33.6186 34.7108 33.6186 34.0708C33.6186 33.4308 33.496 32.8921 33.2506 32.4548C33.0053 32.0068 32.68 31.6708 32.2746 31.4468C31.8693 31.2228 31.432 31.1108 30.9626 31.1108C30.4933 31.1108 30.056 31.2228 29.6506 31.4468C29.256 31.6708 28.9413 32.0068 28.7066 32.4548C28.472 32.8921 28.3546 33.4308 28.3546 34.0708C28.3546 35.0201 28.5946 35.7561 29.0746 36.2788C29.5653 36.7908 30.1786 37.0468 30.9146 37.0468ZM39.1178 26.6468V38.4868H37.2938V26.6468H39.1178ZM43.3365 26.6468V38.4868H41.5125V26.6468H43.3365ZM53.5195 27.3668C54.7035 27.3668 55.7382 27.5961 56.6235 28.0548C57.5195 28.5028 58.2075 29.1535 58.6875 30.0068C59.1782 30.8495 59.4235 31.8361 59.4235 32.9668C59.4235 34.0975 59.1782 35.0788 58.6875 35.9108C58.2075 36.7428 57.5195 37.3828 56.6235 37.8308C55.7382 38.2681 54.7035 38.4868 53.5195 38.4868H49.8875V27.3668H53.5195ZM53.5195 36.9988C54.8208 36.9988 55.8182 36.6468 56.5115 35.9428C57.2048 35.2388 57.5515 34.2468 57.5515 32.9668C57.5515 31.6761 57.2048 30.6681 56.5115 29.9428C55.8182 29.2175 54.8208 28.8548 53.5195 28.8548H51.7115V36.9988H53.5195ZM65.0553 38.6308C64.2233 38.6308 63.4713 38.4441 62.7993 38.0708C62.1273 37.6868 61.5993 37.1535 61.2153 36.4708C60.8313 35.7775 60.6393 34.9775 60.6393 34.0708C60.6393 33.1748 60.8366 32.3801 61.2313 31.6868C61.6259 30.9935 62.1646 30.4601 62.8473 30.0868C63.5299 29.7135 64.2926 29.5268 65.1353 29.5268C65.9779 29.5268 66.7406 29.7135 67.4233 30.0868C68.1059 30.4601 68.6446 30.9935 69.0393 31.6868C69.4339 32.3801 69.6313 33.1748 69.6313 34.0708C69.6313 34.9668 69.4286 35.7615 69.0233 36.4548C68.6179 37.1481 68.0633 37.6868 67.3593 38.0708C66.6659 38.4441 65.8979 38.6308 65.0553 38.6308ZM65.0553 37.0468C65.5246 37.0468 65.9619 36.9348 66.3673 36.7108C66.7833 36.4868 67.1193 36.1508 67.3753 35.7028C67.6313 35.2548 67.7593 34.7108 67.7593 34.0708C67.7593 33.4308 67.6366 32.8921 67.3913 32.4548C67.1459 32.0068 66.8206 31.6708 66.4153 31.4468C66.0099 31.2228 65.5726 31.1108 65.1033 31.1108C64.6339 31.1108 64.1966 31.2228 63.7913 31.4468C63.3966 31.6708 63.0819 32.0068 62.8473 32.4548C62.6126 32.8921 62.4953 33.4308 62.4953 34.0708C62.4953 35.0201 62.7353 35.7561 63.2153 36.2788C63.7059 36.7908 64.3193 37.0468 65.0553 37.0468ZM83.2744 29.6708L80.5384 38.4868H78.6184L76.8424 31.9748L75.0664 38.4868H73.1464L70.3944 29.6708H72.2504L74.0904 36.7588L75.9624 29.6708H77.8664L79.6584 36.7268L81.4824 29.6708H83.2744ZM89.0855 29.5268C89.7788 29.5268 90.3975 29.6708 90.9415 29.9588C91.4962 30.2468 91.9282 30.6735 92.2375 31.2388C92.5468 31.8041 92.7015 32.4868 92.7015 33.2868V38.4868H90.8935V33.5588C90.8935 32.7695 90.6962 32.1668 90.3015 31.7508C89.9068 31.3241 89.3682 31.1108 88.6855 31.1108C88.0028 31.1108 87.4588 31.3241 87.0535 31.7508C86.6588 32.1668 86.4615 32.7695 86.4615 33.5588V38.4868H84.6375V29.6708H86.4615V30.6788C86.7602 30.3161 87.1388 30.0335 87.5975 29.8308C88.0668 29.6281 88.5628 29.5268 89.0855 29.5268Z" fill="white"/>
</svg>
